# xmcd
#
# Track frame offsets:
#	150
#	31132
#	41435
#	69486
#	91689
#	106001
#
# Disc length: 1674 seconds
#
# Revision: 1
# Processed by: cddbd v1.5.2PL0 Copyright (c) Steve Scherf et al.
# Submitted via: audiograbber 1.83.01
#
DISCID=39068806
DTITLE=Dan Treanor's Afrosippi Band Featuring Erica Brown - Tangled Road
DYEAR=2012
DGENRE=Blues
TTITLE0=Tangled Road
TTITLE1=Tell Me Daddy
TTITLE2=Nothing Can Take The Place Of You
TTITLE3=Ernestine
TTITLE4=Dynamite
TTITLE5=Wang Dang Doodle
EXTD=
EXTT0=
EXTT1=
EXTT2=
EXTT3=
EXTT4=
EXTT5=
PLAYORDER=
